<svg width="29" height="31" viewBox="0 0 29 31" fill="none" xmlns="http://www.w3.org/2000/svg">
<path d="M28.0347 23.4396C27.9947 23.4246 27.0347 23.0346 25.0072 22.9396C24.0973 22.9106 23.1866 22.9583 22.2847 23.0821C22.3897 22.811 22.4243 22.5178 22.3854 22.2297C22.3465 21.9417 22.2353 21.6681 22.0622 21.4346L21.9172 21.2371C21.837 21.1348 21.7202 21.0677 21.5914 21.0501C21.4626 21.0326 21.332 21.0658 21.2273 21.1429C21.1227 21.2199 21.0521 21.3347 21.0306 21.4629C21.0091 21.5911 21.0384 21.7226 21.1122 21.8296L21.2572 22.0271C21.3144 22.1043 21.3557 22.1921 21.3788 22.2854C21.4019 22.3786 21.4064 22.4755 21.392 22.5705C21.3776 22.6655 21.3446 22.7567 21.2949 22.8389C21.2452 22.9212 21.1797 22.9927 21.1022 23.0496L20.6472 23.3846C20.5705 23.4424 20.4829 23.4841 20.3897 23.5073C20.2965 23.5305 20.1996 23.5347 20.1047 23.5196C20.0099 23.5052 19.9189 23.4722 19.8369 23.4224C19.755 23.3727 19.6837 23.3071 19.6272 23.2296L17.8447 20.8146C17.7299 20.659 17.6814 20.4643 17.71 20.2731C17.7386 20.0818 17.8419 19.9097 17.9972 19.7946L18.4547 19.4571C18.5312 19.3985 18.6185 19.3557 18.7116 19.3313C18.8048 19.3068 18.9019 19.3011 18.9972 19.3146C19.0921 19.328 19.1832 19.3603 19.2653 19.4097C19.3473 19.4591 19.4186 19.5245 19.4747 19.6021L19.9247 20.2121C20.0035 20.3182 20.1211 20.3889 20.2518 20.4085C20.3825 20.4282 20.5157 20.3953 20.6222 20.3171C20.6753 20.2783 20.7203 20.2293 20.7544 20.1731C20.7886 20.1169 20.8113 20.0544 20.8213 19.9894C20.8313 19.9244 20.8283 19.858 20.8126 19.7941C20.7969 19.7302 20.7687 19.6701 20.7297 19.6171L20.4797 19.2746C20.5475 19.2868 20.616 19.2951 20.6847 19.2996H20.8597C21.3939 19.2996 21.9111 19.112 22.3211 18.7696C22.7311 18.4272 23.0079 17.9517 23.1031 17.4261C23.1983 16.9005 23.106 16.3581 22.8422 15.8937C22.5784 15.4292 22.1599 15.072 21.6597 14.8846C21.9883 14.6022 22.2296 14.2321 22.3554 13.8176C22.4812 13.403 22.4863 12.9612 22.3701 12.5439C22.2539 12.1265 22.0212 11.7509 21.6993 11.4611C21.3773 11.1712 20.9794 10.979 20.5522 10.9071C20.6588 10.842 20.76 10.7684 20.8547 10.6871C21.0831 10.493 21.2704 10.2553 21.4057 9.98781C21.5409 9.72035 21.6213 9.42856 21.6422 9.12959C21.6849 8.52713 21.4871 7.93232 21.0921 7.47545C20.697 7.01857 20.137 6.73689 19.5347 6.69209C19.4697 6.69209 19.4047 6.69209 19.3397 6.69209C19.507 6.40214 19.6069 6.07834 19.6322 5.74459C19.6649 5.34536 19.592 4.94455 19.4207 4.58244C19.2495 4.22033 18.9859 3.90967 18.6566 3.68166C18.3272 3.45365 17.9437 3.31633 17.5445 3.2835C17.1452 3.25066 16.7444 3.32346 16.3822 3.49459C16.3822 3.46209 16.3822 3.42709 16.3822 3.39459C16.4147 2.94657 16.3141 2.49895 16.093 2.1079C15.872 1.71686 15.5403 1.39983 15.1398 1.1966C14.7392 0.993364 14.2875 0.912989 13.8414 0.96556C13.3953 1.01813 12.9746 1.20131 12.6322 1.49209C12.4197 1.67397 12.2426 1.89347 12.1097 2.13959C12.077 1.59439 11.8495 1.0791 11.4686 0.687652C11.0877 0.296205 10.5788 0.0546736 10.0347 0.00709072C9.73592 -0.0166985 9.43535 0.0189987 9.15041 0.112117C8.86548 0.205236 8.60184 0.353927 8.37474 0.549591C8.00131 0.863162 7.73985 1.28956 7.62974 1.76459C7.53961 1.46148 7.38748 1.18041 7.183 0.93919C6.97852 0.697973 6.72615 0.501877 6.44189 0.363336C6.15763 0.224795 5.84768 0.146832 5.5317 0.134391C5.21572 0.12195 4.90061 0.175303 4.60633 0.291065C4.31206 0.406828 4.04505 0.582475 3.82224 0.806868C3.59943 1.03126 3.42567 1.29951 3.31199 1.59459C3.19831 1.88967 3.14719 2.20516 3.16186 2.52104C3.17654 2.83693 3.25669 3.14632 3.39724 3.42959C3.04515 3.34215 2.6772 3.34056 2.32437 3.42497C1.97154 3.50937 1.64415 3.67729 1.36974 3.91459C1.09974 4.1455 0.887499 4.43637 0.749991 4.76395C0.612484 5.09154 0.55352 5.44675 0.577814 5.80119C0.602107 6.15563 0.708984 6.49947 0.889901 6.80523C1.07082 7.11099 1.32076 7.37018 1.61974 7.56209C1.25635 7.67203 0.926175 7.87098 0.659166 8.14087C0.392156 8.41076 0.196768 8.74305 0.090733 9.1076C-0.0153025 9.47214 -0.0286287 9.85739 0.0519637 10.2284C0.132556 10.5994 0.304516 10.9444 0.552238 11.2321C0.746924 11.46 0.984766 11.6471 1.25207 11.7827C1.51937 11.9183 1.81086 11.9996 2.10974 12.0221H2.26974C2.01001 12.346 1.84363 12.7346 1.78856 13.1461C1.73349 13.5576 1.79182 13.9763 1.95725 14.3571C2.12267 14.7378 2.38893 15.0662 2.72728 15.3068C3.06564 15.5473 3.46326 15.6909 3.87724 15.7221H4.05474C4.57812 15.7234 5.08557 15.5421 5.48974 15.2096C5.45453 15.3413 5.43192 15.4761 5.42224 15.6121C5.39839 15.9121 5.43425 16.2139 5.52775 16.5C5.62125 16.7861 5.77053 17.0509 5.96697 17.2789C6.16341 17.507 6.40311 17.6939 6.67221 17.8287C6.94131 17.9636 7.23447 18.0437 7.53474 18.0646H7.70974C8.10949 18.065 8.50212 17.9588 8.84724 17.7571C8.84724 17.8021 8.83474 17.8496 8.82974 17.8971C8.78425 18.5004 8.98015 19.0971 9.3744 19.556C9.76864 20.015 10.329 20.2986 10.9322 20.3446H11.1072C11.561 20.3459 12.0046 20.2099 12.3797 19.9546C12.3357 20.5568 12.5323 21.1519 12.9264 21.6094C13.3206 22.0668 13.8801 22.3492 14.4822 22.3946H14.6572C15.1244 22.3943 15.5802 22.2502 15.9626 21.9818C16.3451 21.7134 16.6356 21.3338 16.7947 20.8946C16.8515 21.0733 16.9359 21.242 17.0447 21.3946L18.8222 23.8146C18.9562 23.9979 19.1253 24.1527 19.3197 24.2699C19.5142 24.3871 19.7301 24.4643 19.9547 24.4971C20.0374 24.5105 20.121 24.5172 20.2047 24.5171C20.3541 24.5169 20.5028 24.4976 20.6472 24.4596C20.7411 25.5109 20.9362 26.5507 21.2297 27.5646C21.7947 29.5146 22.4047 30.3496 22.4297 30.3846C22.5099 30.4869 22.6268 30.5539 22.7556 30.5715C22.8844 30.5891 23.015 30.5559 23.1196 30.4788C23.2243 30.4018 23.2949 30.287 23.3164 30.1588C23.3379 30.0306 23.3086 29.8991 23.2347 29.7921C23.2347 29.7921 22.6997 29.0421 22.1897 27.2921C22.1322 27.0971 22.0822 26.9046 22.0347 26.7146C22.1647 26.9646 22.3072 27.2146 22.4597 27.4646C23.5147 29.2146 24.3197 29.8521 24.3547 29.8771C24.4579 29.9583 24.5889 29.9958 24.7194 29.9813C24.8499 29.9668 24.9694 29.9015 25.0522 29.7996C25.1353 29.6964 25.1741 29.5645 25.1601 29.4328C25.146 29.3011 25.0802 29.1804 24.9772 29.0971C24.9772 29.0971 24.2872 28.5271 23.3622 27.0221C24.6722 28.5746 25.5672 29.0896 25.6122 29.1121C25.7273 29.1784 25.8639 29.1963 25.9922 29.1618C26.1204 29.1274 26.2297 29.0434 26.296 28.9283C26.3623 28.8133 26.3802 28.6766 26.3457 28.5484C26.3113 28.4202 26.2273 28.3109 26.1122 28.2446C26.1122 28.2446 25.3147 27.7721 24.1372 26.3771C23.9222 26.1271 23.7247 25.8771 23.5447 25.6271C23.8672 25.7546 24.2072 25.9021 24.5447 26.0721C26.1822 26.8821 26.8247 27.5346 26.8297 27.5396C26.8765 27.5886 26.9328 27.6277 26.9951 27.6543C27.0574 27.681 27.1245 27.6947 27.1922 27.6946C27.2897 27.6942 27.3849 27.6654 27.4662 27.6117C27.5474 27.558 27.6113 27.4817 27.6498 27.3922C27.6883 27.3027 27.6998 27.2039 27.6829 27.108C27.666 27.012 27.6215 26.9231 27.5547 26.8521C27.5247 26.8196 26.8047 26.0746 24.9872 25.1771C26.6722 25.7121 27.3822 26.2396 27.3872 26.2446C27.4748 26.3114 27.5821 26.3475 27.6922 26.3471C27.7963 26.3468 27.8978 26.314 27.9823 26.2532C28.0669 26.1925 28.1304 26.1069 28.164 26.0084C28.1975 25.9098 28.1995 25.8033 28.1696 25.7035C28.1398 25.6038 28.0795 25.5159 27.9972 25.4521C27.9647 25.4271 27.1397 24.8021 25.2022 24.2021C24.9222 24.1146 24.6447 24.0371 24.3797 23.9696H24.9697C26.7947 24.0421 27.6472 24.3796 27.6547 24.3821C27.7151 24.4065 27.7796 24.4192 27.8447 24.4196C27.9711 24.4364 28.0991 24.4043 28.2026 24.3299C28.3061 24.2554 28.3773 24.1443 28.4016 24.0191C28.4258 23.894 28.4014 23.7643 28.3332 23.6565C28.265 23.5488 28.1582 23.4712 28.0347 23.4396ZM21.8272 16.1896C21.9378 16.3168 22.022 16.4648 22.0748 16.6249C22.1275 16.785 22.1479 16.954 22.1347 17.1221C22.1237 17.2912 22.0791 17.4565 22.0037 17.6083C21.9282 17.76 21.8234 17.8953 21.6952 18.0063C21.5671 18.1172 21.4182 18.2016 21.2572 18.2545C21.0961 18.3074 20.9262 18.3279 20.7572 18.3146C20.4237 18.2942 20.1114 18.1441 19.887 17.8965C19.6626 17.6489 19.5439 17.3234 19.5563 16.9895C19.5687 16.6555 19.7112 16.3397 19.9534 16.1094C20.1955 15.8791 20.5181 15.7527 20.8522 15.7571H20.9497C21.1174 15.7691 21.281 15.8142 21.4312 15.8897C21.5813 15.9652 21.7151 16.0697 21.8247 16.1971L21.8272 16.1896ZM21.1447 12.3296C21.2825 12.489 21.3788 12.68 21.4252 12.8855C21.4716 13.091 21.4667 13.3048 21.4108 13.5079C21.355 13.7111 21.2499 13.8973 21.105 14.0503C20.96 14.2032 20.7796 14.318 20.5798 14.3846C20.3799 14.4513 20.1667 14.4676 19.959 14.4323C19.7513 14.3969 19.5555 14.3109 19.3889 14.1819C19.2223 14.0529 19.0901 13.8848 19.0039 13.6926C18.9177 13.5003 18.8802 13.2898 18.8947 13.0796C18.9193 12.7579 19.0641 12.4573 19.3004 12.2377C19.5367 12.018 19.8471 11.8955 20.1697 11.8946H20.2697C20.607 11.9198 20.9211 12.0759 21.1447 12.3296ZM19.3672 7.68459H19.4647C19.6724 7.70334 19.8724 7.77255 20.0472 7.8862C20.2221 7.99985 20.3665 8.15449 20.4679 8.33668C20.5694 8.51887 20.6248 8.72309 20.6293 8.93157C20.6339 9.14005 20.5874 9.34648 20.494 9.53291C20.4005 9.71934 20.263 9.88012 20.0932 10.0013C19.9235 10.1224 19.7267 10.2002 19.5201 10.228C19.3134 10.2558 19.1031 10.2326 18.9074 10.1606C18.7117 10.0885 18.5366 9.96975 18.3972 9.81459C18.287 9.68723 18.2032 9.53916 18.1509 9.37905C18.0985 9.21894 18.0786 9.04999 18.0922 8.88209C18.1138 8.55818 18.2573 8.25449 18.4939 8.03225C18.7305 7.81001 19.0426 7.68578 19.3672 7.68459ZM16.5347 4.59459C16.7658 4.39421 17.0614 4.28411 17.3672 4.28459H17.4647C17.8034 4.31064 18.118 4.46974 18.3397 4.72709C18.5052 4.91871 18.6101 5.1551 18.6413 5.40636C18.6724 5.65762 18.6283 5.91247 18.5145 6.13867C18.4008 6.36486 18.2226 6.55225 18.0023 6.67713C17.7821 6.80202 17.5298 6.85878 17.2773 6.84024C17.0248 6.82171 16.7834 6.72871 16.5838 6.573C16.3841 6.4173 16.2352 6.20589 16.1557 5.96551C16.0762 5.72513 16.0698 5.46657 16.1373 5.22255C16.2047 4.97853 16.3431 4.75999 16.5347 4.59459ZM13.3097 2.25459C13.5014 2.09206 13.7368 1.98957 13.9863 1.95989C14.2359 1.93021 14.4887 1.97467 14.7132 2.0877C14.9376 2.20074 15.1239 2.37736 15.2486 2.59554C15.3734 2.81372 15.4312 3.0638 15.4147 3.31459C15.3889 3.6534 15.2295 3.96807 14.9716 4.18936C14.7138 4.41066 14.3786 4.52045 14.0397 4.49459C13.7009 4.46873 13.3863 4.30934 13.165 4.05148C12.9437 3.79361 12.8339 3.4584 12.8597 3.11959C12.8727 2.95333 12.9185 2.79129 12.9944 2.64282C13.0704 2.49435 13.175 2.3624 13.3022 2.25459H13.3097ZM9.01724 1.31459C9.24825 1.11421 9.54393 1.00411 9.84974 1.00459H9.94974C10.1178 1.01739 10.2818 1.06318 10.4322 1.13934C10.5825 1.21549 10.7165 1.32052 10.8263 1.44844C10.9361 1.57635 11.0196 1.72464 11.0721 1.88483C11.1246 2.04503 11.145 2.214 11.1322 2.38209C11.1194 2.55018 11.0736 2.71411 10.9975 2.8645C10.9213 3.0149 10.8163 3.14882 10.6884 3.25863C10.5605 3.36844 10.4122 3.45197 10.252 3.50447C10.0918 3.55696 9.92283 3.57739 9.75474 3.56459C9.50063 3.54826 9.25716 3.45651 9.05547 3.30107C8.85378 3.14563 8.70304 2.93357 8.62252 2.692C8.54199 2.45043 8.53535 2.19033 8.60344 1.94497C8.67153 1.6996 8.81125 1.48012 9.00474 1.31459H9.01724ZM4.60974 1.45209C4.84075 1.25171 5.13643 1.14161 5.44224 1.14209H5.53474C5.78852 1.15984 6.03128 1.25266 6.23217 1.40874C6.43305 1.56483 6.58298 1.77714 6.66288 2.01867C6.74278 2.26019 6.74904 2.52002 6.68088 2.76512C6.61271 3.01021 6.47319 3.2295 6.28006 3.39509C6.08693 3.56068 5.84892 3.66509 5.59629 3.69504C5.34367 3.725 5.08783 3.67915 4.86134 3.56332C4.63484 3.44748 4.4479 3.26691 4.32431 3.04455C4.20071 2.8222 4.14604 2.5681 4.16724 2.31459C4.18053 2.14876 4.22647 1.9872 4.30241 1.83918C4.37835 1.69116 4.48279 1.55961 4.60974 1.45209ZM1.57724 5.54709C1.60176 5.22542 1.74662 4.9248 1.98292 4.70517C2.21923 4.48555 2.52963 4.36304 2.85224 4.36209H2.95224C3.29046 4.38829 3.60452 4.54743 3.82567 4.80466C4.04682 5.06189 4.15706 5.39627 4.13224 5.73459C4.12042 5.90255 4.0752 6.06646 3.99921 6.21671C3.92323 6.36696 3.81802 6.50053 3.68974 6.60959C3.49778 6.77525 3.26095 6.88017 3.00929 6.91104C2.75762 6.94191 2.50245 6.89734 2.27615 6.78299C2.04985 6.66863 1.86261 6.48964 1.73818 6.26872C1.61375 6.04779 1.55773 5.79489 1.57724 5.54209V5.54709ZM2.18474 11.0246C1.85669 10.9957 1.55231 10.8418 1.33467 10.5946C1.11704 10.3474 1.00281 10.026 1.01567 9.69697C1.02852 9.3679 1.16747 9.05639 1.40372 8.82696C1.63998 8.59754 1.95543 8.46779 2.28474 8.46459H2.38224C2.72105 8.49012 3.03585 8.64919 3.25738 8.90682C3.4789 9.16445 3.58901 9.49953 3.56349 9.83834C3.53796 10.1772 3.37889 10.492 3.12126 10.7135C2.86363 10.935 2.52855 11.0451 2.18974 11.0196L2.18474 11.0246ZM4.88474 14.4246C4.72835 14.5592 4.54173 14.6541 4.34078 14.701C4.13983 14.748 3.93051 14.7456 3.73065 14.6942C3.5308 14.6428 3.34634 14.5438 3.19299 14.4057C3.03965 14.2676 2.92197 14.0945 2.84998 13.9011C2.77799 13.7077 2.75383 13.4998 2.77956 13.295C2.80529 13.0903 2.88014 12.8948 2.99773 12.7252C3.11533 12.5556 3.27218 12.417 3.45492 12.3211C3.63766 12.2252 3.84088 12.175 4.04724 12.1746H4.14724C4.39969 12.1943 4.64065 12.2883 4.83975 12.4448C5.03886 12.6012 5.18719 12.8131 5.26606 13.0537C5.34493 13.2944 5.35081 13.5529 5.28295 13.7969C5.21509 14.0408 5.07653 14.2593 4.88474 14.4246ZM8.53474 16.7646C8.37827 16.8993 8.19154 16.9942 7.99048 17.0411C7.78941 17.088 7.57998 17.0856 7.38005 17.0341C7.18011 16.9825 6.99562 16.8834 6.8423 16.7451C6.68897 16.6068 6.57138 16.4335 6.49954 16.2399C6.42771 16.0464 6.40376 15.8383 6.42975 15.6335C6.45574 15.4286 6.5309 15.2331 6.6488 15.0636C6.7667 14.8942 6.92386 14.7557 7.10686 14.6601C7.28986 14.5645 7.49327 14.5146 7.69974 14.5146H7.78474C7.95256 14.5272 8.11624 14.5729 8.26641 14.6488C8.41658 14.7248 8.55029 14.8297 8.65989 14.9574C8.7695 15.0851 8.85284 15.2332 8.90514 15.3931C8.95745 15.5531 8.97771 15.7218 8.96474 15.8896C8.95451 16.0566 8.91123 16.22 8.83742 16.3702C8.76361 16.5204 8.66073 16.6544 8.53474 16.7646ZM11.9297 19.0646C11.7733 19.2007 11.5863 19.2968 11.3845 19.3448C11.1828 19.3928 10.9725 19.3911 10.7716 19.34C10.5706 19.2888 10.3851 19.1897 10.2309 19.0512C10.0766 18.9127 9.95826 18.7388 9.88594 18.5445C9.81361 18.3502 9.78947 18.1412 9.81559 17.9355C9.84171 17.7299 9.9173 17.5336 10.0359 17.3635C10.1545 17.1934 10.3125 17.0547 10.4965 16.9591C10.6805 16.8635 10.8849 16.8139 11.0922 16.8146H11.1922C11.4447 16.8343 11.6856 16.9283 11.8848 17.0848C12.0839 17.2412 12.2322 17.4531 12.3111 17.6937C12.3899 17.9344 12.3958 18.1929 12.3279 18.4369C12.2601 18.6808 12.1215 18.8993 11.9297 19.0646ZM15.4772 21.1171C15.35 21.227 15.2023 21.3108 15.0426 21.3635C14.8829 21.4163 14.7144 21.437 14.5467 21.4244C14.379 21.4119 14.2154 21.3663 14.0654 21.2904C13.9153 21.2145 13.7817 21.1097 13.6722 20.9821C13.5116 20.7965 13.4078 20.5686 13.3731 20.3255C13.3384 20.0825 13.3743 19.8347 13.4765 19.6115C13.5787 19.3883 13.743 19.1993 13.9497 19.0668C14.1564 18.9344 14.3968 18.8642 14.6422 18.8646H14.7397C14.9938 18.8809 15.2373 18.9727 15.439 19.1281C15.6407 19.2836 15.7914 19.4956 15.872 19.7372C15.9525 19.9788 15.9591 20.2388 15.891 20.4842C15.823 20.7296 15.6832 20.9491 15.4897 21.1146L15.4772 21.1171ZM16.8672 19.6496C16.788 19.2793 16.6159 18.9352 16.3672 18.6496C16.0033 18.2267 15.497 17.952 14.9441 17.8774C14.3913 17.8027 13.8302 17.9334 13.3672 18.2446C13.3965 17.8315 13.3129 17.4183 13.1254 17.0491C12.9378 16.68 12.6534 16.3688 12.3025 16.1489C11.9516 15.929 11.5475 15.8088 11.1335 15.8009C10.7195 15.7931 10.3112 15.8981 9.95224 16.1046C9.95984 16.0591 9.96485 16.0132 9.96724 15.9671C10.0015 15.5229 9.90484 15.0785 9.6891 14.6887C9.47337 14.299 9.14807 13.9811 8.75348 13.7743C8.35889 13.5676 7.91233 13.4811 7.46909 13.5256C7.02585 13.5701 6.60538 13.7436 6.25974 14.0246C6.29292 13.8934 6.31467 13.7596 6.32474 13.6246C6.37023 13.0213 6.17432 12.4246 5.78008 11.9657C5.38583 11.5067 4.82551 11.2231 4.22224 11.1771C4.1689 11.1771 4.1164 11.1771 4.06474 11.1771C4.26362 10.9273 4.40789 10.6386 4.48821 10.3296C4.56854 10.0205 4.58314 9.69811 4.53107 9.38309C4.479 9.06808 4.36142 8.7675 4.18592 8.50076C4.01043 8.23403 3.78092 8.00709 3.51224 7.83459C3.81806 7.74481 4.10109 7.59051 4.34224 7.38209C4.72717 7.05226 4.99121 6.60355 5.09262 6.10689C5.19404 5.61023 5.12705 5.09393 4.90224 4.63959C5.02402 4.66766 5.14768 4.68688 5.27224 4.69709H5.44724C5.96255 4.69524 6.46215 4.51945 6.86508 4.1982C7.26801 3.87695 7.55066 3.42905 7.66724 2.92709C7.75744 3.23401 7.91261 3.51794 8.12224 3.75959C8.31476 3.99118 8.55182 4.18176 8.81935 4.32003C9.08689 4.45831 9.37947 4.54147 9.67974 4.56459H9.85474C10.2654 4.56237 10.6679 4.44952 11.0198 4.23791C11.3718 4.0263 11.6602 3.72375 11.8547 3.36209C11.8876 3.913 12.119 4.43335 12.506 4.8268C12.893 5.22025 13.4094 5.46015 13.9597 5.50209H14.1347C14.4649 5.50307 14.7911 5.43048 15.0897 5.28959V5.38709C15.0443 5.9904 15.2402 6.58709 15.6344 7.04602C16.0286 7.50496 16.589 7.78859 17.1922 7.83459H17.3672H17.3822C17.2006 8.15378 17.0986 8.51209 17.085 8.87911C17.0713 9.24614 17.1465 9.61102 17.304 9.94279C17.4616 10.2746 17.6969 10.5634 17.9899 10.7848C18.2829 11.0062 18.6251 11.1537 18.9872 11.2146C18.8807 11.2797 18.7795 11.3533 18.6847 11.4346C18.3841 11.6927 18.1559 12.0246 18.0227 12.3978C17.8894 12.7709 17.8557 13.1723 17.9248 13.5625C17.994 13.9526 18.1636 14.318 18.417 14.6226C18.6703 14.9272 18.9987 15.1605 19.3697 15.2996C18.9476 15.6642 18.6739 16.1711 18.6007 16.724C18.5274 17.277 18.6596 17.8376 18.9722 18.2996C18.5744 18.2808 18.1823 18.4 17.8622 18.6371L17.4072 18.9721C17.1749 19.1456 16.9894 19.3741 16.8672 19.6371V19.6496Z" fill="#8789A3"/>
</svg>
