<svg width="19" height="28" viewBox="0 0 19 28" fill="none" xmlns="http://www.w3.org/2000/svg">
<path d="M16.7024 22.8063V21.8247C16.7024 20.2612 15.8311 18.8556 14.4289 18.1562L11.7671 16.8289V11.8714C11.7671 10.5644 11.1579 9.36771 10.1386 8.60165C10.1918 8.31285 10.3689 8.06992 10.5992 7.99353C12.282 7.43506 13.4121 5.87094 13.4121 4.10125C13.4121 1.56621 11.141 -0.354248 8.61463 0.055471C6.66091 0.372002 5.18687 2.18719 5.18687 4.27685V7.04951C3.1368 9.21284 1.89684 12.144 1.89684 15.304V19.9373C1.89684 21.1653 2.24021 22.3404 2.88111 23.3542C1.34417 23.9488 0.251831 25.4397 0.251831 27.1798V28.0001H15.8797C17.2402 28.0001 18.3474 26.8959 18.3474 25.5392C18.3479 24.9776 18.1951 24.4265 17.9052 23.945C17.6154 23.4635 17.1996 23.0699 16.7024 22.8063ZM13.8525 19.7105C14.5999 20.1529 15.0572 20.9476 15.0572 21.8247V22.2135L13.1939 21.594L13.8525 19.7105ZM6.8321 4.27685C6.8321 2.98295 7.71202 1.86399 8.87893 1.67471C10.4573 1.41839 11.7671 2.62983 11.7671 4.10125C11.7678 4.61804 11.6051 5.12189 11.3022 5.5412C10.9993 5.96051 10.5716 6.27396 10.0799 6.43701C9.43067 6.65237 8.92603 7.15396 8.66793 7.79118L6.8321 6.8756V4.27685ZM3.54186 15.304C3.54186 12.7274 4.47748 10.2936 6.1878 8.38892L8.75791 9.67025C9.5995 10.0895 10.1221 10.9335 10.1221 11.8714V17.8427L12.371 18.9645L11.6333 21.0755L8.47706 20.026V12.3047H6.83204V21.2084L9.32358 22.0368C8.22652 23.2515 6.48977 23.7405 4.87053 23.2024L4.81844 23.1849C3.99423 22.2982 3.54186 21.153 3.54186 19.9373V15.304ZM15.8797 26.3595H2.03777C2.36403 25.4413 3.22228 24.7725 4.24099 24.7221C4.31402 24.7405 5.08553 25.0607 6.21028 25.0607C8.08598 25.0607 9.87751 24.1572 10.983 22.5883L15.7042 24.1577C15.995 24.2541 16.248 24.4395 16.4272 24.6875C16.6064 24.9355 16.7027 25.2335 16.7024 25.5392C16.7024 25.9915 16.3334 26.3595 15.8797 26.3595H15.8797Z" fill="#8789A3"/>
</svg>
