<svg width="27" height="26" viewBox="0 0 27 26" fill="none" xmlns="http://www.w3.org/2000/svg">
<path d="M26.2487 0H25.4849C24.2384 0 23.1294 0.599219 22.4319 1.52344H22.4299C21.1818 1.52344 20.072 2.12367 19.3749 3.04941V3.04688C17.2689 3.04688 15.5561 4.75556 15.5561 6.85547V10.5192L13.2139 12.8229L10.8717 10.5192V6.85547C10.8717 4.75556 9.15886 3.04688 7.05294 3.04688V3.04941C6.35583 2.12367 5.24599 1.52344 3.99791 1.52344H3.99588C3.29847 0.599219 2.18934 0 0.942894 0H0.179138V11.9651L5.59065 18.3828H4.76167V26H21.6661V18.3828H20.8371L26.2487 11.9651V0ZM9.3442 6.85547V9.16398C8.87821 8.88354 8.35732 8.70605 7.81669 8.64348V5.33203C7.81669 5.11062 7.79643 4.89328 7.76017 4.68203C8.67836 4.98012 9.3442 5.84137 9.3442 6.85547ZM4.76167 3.17738C5.65068 3.49182 6.28918 4.3388 6.28918 5.33203V8.77089C5.92556 8.87711 5.57991 9.03698 5.26371 9.24518L4.76167 8.74504V3.17738ZM12.4501 24.4766H6.28918V19.9062H12.4501V24.4766ZM12.4501 18.3828H7.58655L1.70665 11.4101V1.654C2.59566 1.96828 3.23416 2.81531 3.23416 3.80859V9.37625L8.04022 14.1695L9.12068 13.0925L6.38129 10.3604C6.68577 10.2145 7.02132 10.138 7.36918 10.138C7.9812 10.138 8.55657 10.3756 8.98936 10.8073L12.4501 14.2112V18.3828ZM20.1386 5.33203C20.1386 4.3388 20.7771 3.49182 21.6661 3.17738V8.74504L21.1641 9.24518C20.8479 9.03698 20.5022 8.87711 20.1386 8.77089V5.33203ZM17.0836 6.85547C17.0836 5.84142 17.7495 4.98012 18.6676 4.68203C18.6304 4.89672 18.6115 5.11416 18.6111 5.33203V8.64348C18.0705 8.70605 17.5496 8.88354 17.0836 9.16398V6.85547ZM20.1386 24.4766H13.9777V19.9062H20.1386V24.4766ZM24.7211 11.4101L18.8412 18.3828H13.9777V14.2112L17.4384 10.8073C17.8712 10.3756 18.4466 10.138 19.0586 10.138C19.4065 10.138 19.742 10.2145 20.0465 10.3604L17.3072 13.0924L18.3875 14.1695L23.1936 9.3763V3.80859C23.1936 2.81536 23.8321 1.96838 24.7211 1.65395V11.4101Z" fill="#8789A3"/>
</svg>
